<mxfile host="app.diagrams.net" modified="2024-07-14T17:13:11.004Z" agent="Mozilla/5.0 (Macintosh; Intel Mac OS X 10_15_7) AppleWebKit/537.36 (KHTML, like Gecko) Chrome/126.0.0.0 Safari/537.36" etag="39orgshicQN9hskqXBRS" version="24.6.5" type="device">
  <diagram id="C5RBs43oDa-KdzZeNtuy" name="Page-1">
    <mxGraphModel dx="954" dy="532" grid="1" gridSize="10" guides="1" tooltips="1" connect="1" arrows="1" fold="1" page="1" pageScale="1" pageWidth="827" pageHeight="1169" math="0" shadow="0">
      <root>
        <mxCell id="WIyWlLk6GJQsqaUBKTNV-0" />
        <mxCell id="WIyWlLk6GJQsqaUBKTNV-1" parent="WIyWlLk6GJQsqaUBKTNV-0" />
        <mxCell id="vT5-tsCif7zNP1GxxDNX-3" value="" style="rounded=0;whiteSpace=wrap;html=1;fillColor=none;" vertex="1" parent="WIyWlLk6GJQsqaUBKTNV-1">
          <mxGeometry x="80" y="80" width="680" height="320" as="geometry" />
        </mxCell>
        <mxCell id="vT5-tsCif7zNP1GxxDNX-4" value="fly.io" style="text;html=1;align=center;verticalAlign=middle;whiteSpace=wrap;rounded=0;" vertex="1" parent="WIyWlLk6GJQsqaUBKTNV-1">
          <mxGeometry x="80" y="80" width="60" height="30" as="geometry" />
        </mxCell>
        <mxCell id="vT5-tsCif7zNP1GxxDNX-6" value="" style="rounded=0;whiteSpace=wrap;html=1;fillColor=none;" vertex="1" parent="WIyWlLk6GJQsqaUBKTNV-1">
          <mxGeometry x="380" y="120" width="340" height="240" as="geometry" />
        </mxCell>
        <mxCell id="vT5-tsCif7zNP1GxxDNX-10" style="edgeStyle=orthogonalEdgeStyle;rounded=0;orthogonalLoop=1;jettySize=auto;html=1;exitX=1;exitY=0.5;exitDx=0;exitDy=0;exitPerimeter=0;startArrow=classic;startFill=1;entryX=0.01;entryY=0.444;entryDx=0;entryDy=0;entryPerimeter=0;" edge="1" parent="WIyWlLk6GJQsqaUBKTNV-1" source="vT5-tsCif7zNP1GxxDNX-9" target="vT5-tsCif7zNP1GxxDNX-14">
          <mxGeometry relative="1" as="geometry">
            <mxPoint x="399" y="240" as="targetPoint" />
          </mxGeometry>
        </mxCell>
        <mxCell id="vT5-tsCif7zNP1GxxDNX-11" value="&lt;div&gt;&amp;nbsp;localhost&amp;nbsp;&lt;/div&gt;&amp;nbsp;mysql" style="edgeLabel;html=1;align=center;verticalAlign=middle;resizable=0;points=[];" vertex="1" connectable="0" parent="vT5-tsCif7zNP1GxxDNX-10">
          <mxGeometry x="-0.0167" y="-2" relative="1" as="geometry">
            <mxPoint as="offset" />
          </mxGeometry>
        </mxCell>
        <mxCell id="vT5-tsCif7zNP1GxxDNX-9" value="climbing_events" style="shape=cylinder3;whiteSpace=wrap;html=1;boundedLbl=1;backgroundOutline=1;size=15;" vertex="1" parent="WIyWlLk6GJQsqaUBKTNV-1">
          <mxGeometry x="120" y="120" width="140" height="240" as="geometry" />
        </mxCell>
        <mxCell id="vT5-tsCif7zNP1GxxDNX-12" value="rs-500-database" style="text;html=1;align=center;verticalAlign=middle;whiteSpace=wrap;rounded=0;" vertex="1" parent="WIyWlLk6GJQsqaUBKTNV-1">
          <mxGeometry x="120" y="150" width="110" height="30" as="geometry" />
        </mxCell>
        <mxCell id="vT5-tsCif7zNP1GxxDNX-13" value="https://climbing-events.fly.dev" style="text;html=1;align=center;verticalAlign=middle;whiteSpace=wrap;rounded=0;" vertex="1" parent="WIyWlLk6GJQsqaUBKTNV-1">
          <mxGeometry x="380" y="120" width="180" height="30" as="geometry" />
        </mxCell>
        <mxCell id="vT5-tsCif7zNP1GxxDNX-19" style="edgeStyle=orthogonalEdgeStyle;rounded=0;orthogonalLoop=1;jettySize=auto;html=1;exitX=1;exitY=0.5;exitDx=0;exitDy=0;startArrow=classic;startFill=1;" edge="1" parent="WIyWlLk6GJQsqaUBKTNV-1" source="vT5-tsCif7zNP1GxxDNX-14" target="vT5-tsCif7zNP1GxxDNX-15">
          <mxGeometry relative="1" as="geometry" />
        </mxCell>
        <mxCell id="vT5-tsCif7zNP1GxxDNX-20" value="&amp;nbsp;localhost&amp;nbsp;&lt;div&gt;http&lt;/div&gt;" style="edgeLabel;html=1;align=center;verticalAlign=middle;resizable=0;points=[];" vertex="1" connectable="0" parent="vT5-tsCif7zNP1GxxDNX-19">
          <mxGeometry x="-0.02" y="1" relative="1" as="geometry">
            <mxPoint as="offset" />
          </mxGeometry>
        </mxCell>
        <mxCell id="vT5-tsCif7zNP1GxxDNX-14" value="&lt;div&gt;&lt;span style=&quot;background-color: initial;&quot;&gt;go&lt;/span&gt;&lt;br&gt;&lt;/div&gt;&lt;div&gt;API&lt;/div&gt;" style="rounded=0;whiteSpace=wrap;html=1;" vertex="1" parent="WIyWlLk6GJQsqaUBKTNV-1">
          <mxGeometry x="400" y="160" width="100" height="180" as="geometry" />
        </mxCell>
        <mxCell id="vT5-tsCif7zNP1GxxDNX-15" value="front end" style="rounded=0;whiteSpace=wrap;html=1;" vertex="1" parent="WIyWlLk6GJQsqaUBKTNV-1">
          <mxGeometry x="600" y="160" width="100" height="180" as="geometry" />
        </mxCell>
      </root>
    </mxGraphModel>
  </diagram>
</mxfile>
